<svg id="b4a8474b-e5e4-4038-83c2-ca641dc1f53b" data-name="Layer 1" xmlns="http://www.w3.org/2000/svg" width="879.12502" height="629.07898" viewBox="0 0 879.12502 629.07898"><rect id="f11d0f15-8366-4131-9f6e-4bd9cd8f8eba" data-name="Rectangle 338" x="0.27499" y="0.36501" width="644.72498" height="412.91" fill="#e6e6e6"/><rect id="ebdd7596-b3d4-45a9-be72-733caf0fcee0" data-name="Rectangle 339" x="18.711" y="52.15401" width="607.85303" height="336.69299" fill="#fff"/><rect id="a61c740c-a0b8-4f64-aa18-450b2f534c79" data-name="Rectangle 340" width="644.72498" height="27.39" fill="#1ea2b8"/><circle id="b8774c41-9005-4cf1-ac2c-862f9db27120" data-name="Ellipse 513" cx="20.355" cy="14.004" r="5.077" fill="#fff"/><circle id="a73cb5a3-a799-482f-912e-1ea589d18961" data-name="Ellipse 514" cx="39.624" cy="14.004" r="5.077" fill="#fff"/><circle id="e6b44fe6-dab9-4ba2-8bf1-c155afe1646a" data-name="Ellipse 515" cx="58.89299" cy="14.004" r="5.077" fill="#fff"/><rect id="eba82da3-d374-4e3d-8cd0-1a28e8454fc1" data-name="Rectangle 341" x="93.5" y="79.84801" width="118.887" height="128.98199" fill="#e6e6e6"/><rect id="a2c2db4e-3e02-44e7-bff7-cfc72ea8695d" data-name="Rectangle 342" x="263.19299" y="79.84801" width="118.887" height="128.98199" fill="#e6e6e6"/><rect id="b10fea21-aa93-4f16-926f-454ef326ba79" data-name="Rectangle 343" x="432.88501" y="79.84801" width="118.887" height="128.98199" fill="#e6e6e6"/><rect id="b4643c62-f612-4535-ad4b-b27166e402f1" data-name="Rectangle 344" x="93.5" y="232.17599" width="118.887" height="128.98199" fill="#e6e6e6"/><rect id="b1a4f4b1-bd3e-4b27-af00-7bd8adf68e87" data-name="Rectangle 345" x="263.19299" y="232.17599" width="118.887" height="128.98199" fill="#e6e6e6"/><rect id="eeb6006c-aac5-4bd5-b291-bc39fd024b03" data-name="Rectangle 346" x="432.88501" y="232.17599" width="118.887" height="128.98199" fill="#e6e6e6"/><path id="a59a5021-2d0b-47e5-97ff-8c2360fe8e04" data-name="Path 2643" d="M452.3655,400.78552l21.722-8.588,2.526,42.939s4.546,13.134,3.031,18.186c0,0,1.01,8.588-1.516,9.093s-9.6,1.516-10.1,1.01-.505-2.021-.505-2.021-5.052,3.536-5.557,7.577c0,0-21.217,6.567-21.722.505s10.608-11.114,10.608-11.114l8.588-13.134Z" transform="translate(-160.43749 -135.46051)" fill="#fff"/><path id="e1fabbda-81c6-4c4d-bfef-9280058fc56a" data-name="Path 2644" d="M498.33749,400.78552l21.719-8.588,2.526,42.939s4.546,13.134,3.031,18.186c0,0,1.01,8.588-1.516,9.093s-9.6,1.516-10.1,1.01-.505-2.021-.505-2.021-5.052,3.536-5.557,7.577c0,0-21.217,6.567-21.722.505s10.608-11.114,10.608-11.114l8.588-13.134Z" transform="translate(-160.43749 -135.46051)" fill="#fff"/><path id="ef9c0852-7e1f-4c2e-8bde-f832712246ef" data-name="Path 2645" d="M500.4595,234.97051s-4.625,12.924.734,18.752l-4.468,15.353s15.874,47.622,11.339,54.274c0,0-16.932,8.466-50.8-3.024l13.757-53.367-1.965-22.526,2.721-10.583,6.047-.6s-3.628,13.606,3.024,15.723,13.141-15.383,13.141-15.383Z" transform="translate(-160.43749 -135.46051)" fill="#3f3d56"/><path id="b568b808-50f7-4af8-9489-0d4bb1bc5ae8" data-name="Path 2646" d="M286.85848,318.39752l5.837,2.388,27.858-36.613,8.755,42.98,5.837-1.061c3.744-37.055,6.8-74.85,3.051-92.726l-21.623-.929-9.816,31.311-4.776,21.225Z" transform="translate(-160.43749 -135.46051)" fill="#fff"/><path id="ae028a04-4ea0-4cc1-96b3-18c80a6856c3" data-name="Path 2647" d="M641.11547,233.07251s-7.966,11.074-7.577,15.543,5.44,77.327,5.44,77.327l11.852.583-3.5-52.458,2.914-14.183,7.189,66.058,14.572.389-13.017-85.681-2.526-7.577Z" transform="translate(-160.43749 -135.46051)" fill="#fff"/><path id="fa4afbb3-5196-4a6d-a4f3-3979930c41c6" data-name="Path 2648" d="M686.1375,411.47852c-2.115-2.538-5.751-3.91-9.242-4.652.1-.317-10.618-2.532-10.8-2.076l-4.041-3.219-12.417,6.447-6.977-4.75-3.241,1.15c.132-.572-10.061,1.194-10.061,1.194-1.947.07-4.434.192-7.218.406-9.749.75-10.5,26-10.5,26a39.85015,39.85015,0,0,1,14.113-2.955l2.635,30.2c13.553-1.162,27.767.19,42.5,3.5l6.909-23.74,16.089-6.257S691.1375,417.47751,686.1375,411.47852Z" transform="translate(-160.43749 -135.46051)" fill="#3f3d56"/><path id="b168beda-6d95-4337-9821-c56de39a7c96" data-name="Path 2649" d="M340.8785,397.0975c-1.743-2.091-4.738-3.222-7.615-3.833.086-.262-8.749-2.086-8.9-1.71l-3.33-2.652-10.229,5.312-5.749-3.913-2.67.948c.109-.471-8.29.983-8.29.983-1.6.058-3.654.158-5.947.335-8.033.618-8.651,21.421-8.651,21.421a32.83679,32.83679,0,0,1,11.629-2.435l2.171,60.914c11.167-.958,22.879.157,35.015,2.884l5.692-55.59,13.257-5.155S344.99749,402.04251,340.8785,397.0975Z" transform="translate(-160.43749 -135.46051)" fill="#fff"/><path id="ba208738-afcb-4f3f-b73b-5a58c93c8dd2" data-name="Path 2650" d="M723.69249,748.07849l-80.422,16.461-1.833-.187-70.674-7.133v-89.559l86.516-14.627,62.759,7.319.023.4v.187Z" transform="translate(-160.43749 -135.46051)" fill="#e6e6e6"/><path id="b3ef1d40-018a-47f4-87c4-69f6b17181d8" data-name="Path 2651" d="M723.69249,748.07849l-80.422,16.461-1.833-.187v-91.816l78.624-11.791Z" transform="translate(-160.43749 -135.46051)" opacity="0.1" style="isolation:isolate"/><path id="b5920cf1-d32c-42c7-9e5a-f8130bcd4437" data-name="Path 2652" d="M720.06151,660.9325l-.023.023-78.6,11.581-70.674-4.88,86.516-14.627,62.759,7.319.023.4Z" transform="translate(-160.43749 -135.46051)" opacity="0.05" style="isolation:isolate"/><rect id="f6613319-24a2-4b2f-97cc-30869d3b83ae" data-name="Rectangle 347" x="592.69467" y="687.48521" width="23.00263" height="49.00561" transform="translate(-305.99244 1133.17215) rotate(-86.27357)" fill="#fff"/><rect id="b52dd153-5894-4e68-9cbe-631ec2ba4597" data-name="Rectangle 348" x="600.19303" y="698.98602" width="8.00092" height="26.00298" transform="translate(-305.99428 1133.16918) rotate(-86.27357)" fill="#ccc"/><path id="ab0169b9-e3f3-4d76-a6cc-923a674abe7c" data-name="Path 2653" d="M832.69249,748.07849l-80.422,16.461-1.833-.187-70.674-7.133v-89.559l86.516-14.627,62.759,7.319.023.4v.187Z" transform="translate(-160.43749 -135.46051)" fill="#1ea2b8"/><path id="b80d55a8-f77f-4a55-82eb-d53d4bb65cdf" data-name="Path 2654" d="M832.69249,748.07849l-80.422,16.461-1.833-.187v-91.816l78.624-11.791Z" transform="translate(-160.43749 -135.46051)" opacity="0.1" style="isolation:isolate"/><path id="ae7adaf2-9146-40c9-9792-15fe0c19e62e" data-name="Path 2655" d="M829.06151,660.9325l-.023.023-78.6,11.581-70.674-4.88,86.516-14.627,62.759,7.319.023.4Z" transform="translate(-160.43749 -135.46051)" opacity="0.05" style="isolation:isolate"/><rect id="e0f502c3-2e0a-4dcf-8e20-bd2275491fa4" data-name="Rectangle 349" x="701.69571" y="687.48521" width="23.00263" height="49.00561" transform="translate(-204.07566 1241.94273) rotate(-86.27357)" fill="#fff"/><rect id="f7667886-ea3d-4920-8e52-bbde53909ce0" data-name="Rectangle 350" x="709.19406" y="698.987" width="8.00092" height="26.00298" transform="translate(-204.07847 1241.94068) rotate(-86.27357)" fill="#ccc"/><path id="b803c3b1-1234-4e5c-9e0b-b2142d130134" data-name="Path 2682" d="M909.8875,413.31149h57v-30.5a28.5,28.5,0,0,0-57,0Z" transform="translate(-160.43749 -135.46051)" fill="#2f2e41"/><path id="bcb9bdb3-b599-4f78-ad94-76578ed25bf7" data-name="Path 2683" d="M884.4425,752.65549h-12.259l-5.833-47.292h18.094Z" transform="translate(-160.43749 -135.46051)" fill="#ffb6b6"/><path id="b75174e1-088a-46d9-86f0-7409366746e8" data-name="Path 2684" d="M887.56951,748.6525h-24.145a15.387,15.387,0,0,0-15.386,15.385v.5h39.531Z" transform="translate(-160.43749 -135.46051)" fill="#2f2e41"/><path id="bc4d5904-753f-4d4b-a5fc-6f3e427dc9a1" data-name="Path 2685" d="M1030.99651,736.2945l-10.676,6.027-28.328-38.311,15.757-8.895Z" transform="translate(-160.43749 -135.46051)" fill="#ffb6b6"/><path id="a666bf0d-8e88-4999-a2a0-4d805d9cc2a4" data-name="Path 2686" d="M1031.7515,731.27151l-21.025,11.866h0a15.387,15.387,0,0,0-5.834,20.963l.246.435,34.424-19.433Z" transform="translate(-160.43749 -135.46051)" fill="#2f2e41"/><path id="a89ddf01-d79d-43ff-af46-7c55062ac3b5" data-name="Path 2687" d="M952.64249,539.9845l.946,4.73s2.838,2.838,1.419,4.257-.946,8.042-.946,8.042c.794,12.076,16.573,79.936,19.395,93.189,0,0,21.76,14.191,38.789,42.1s17.5,35.005,17.5,35.005l-18.918,8.043-47.3-57.238s-13.245-8.042-17.976-15.137-34.064-80.418-34.064-80.418l-16.56,76.63306s.946,27.909-3.311,45.885a192.52241,192.52241,0,0,0-4.73,34.532l-22.233-2.365s1.419-67.172,3.784-74.268c0,0-9.934-81.836,9.934-114.476l16.012-42.687,15.682-6.036Z" transform="translate(-160.43749 -135.46051)" fill="#2f2e41"/><path id="b3c11723-6e9d-4c53-b0c5-e14d40792876" data-name="Path 2688" d="M938.68153,361.76749c-29.847.51-29.842,44.907,0,45.412C968.52653,406.66949,968.5225,362.27249,938.68153,361.76749Z" transform="translate(-160.43749 -135.46051)" fill="#ffb8b8"/><path id="f76586a6-a048-4aeb-b068-bc69fcbe8650" data-name="Path 2689" d="M915.71052,383.2955h5.073l1.381-3.454-.691,3.454h27.745l-.9-7.227,6.744,7.227h6.727v-3.916a23.038,23.038,0,0,0-46.076-.0326v.0326Z" transform="translate(-160.43749 -135.46051)" fill="#2f2e41"/><path id="ff43f98f-e908-4554-8e0b-1953dd8eabe3" data-name="Path 2690" d="M907.9035,420.4375l56.4.457-11.916,120.917s-65.959-3.481-66-23.614l6.179-17.891Z" transform="translate(-160.43749 -135.46051)" fill="#3f3d56"/><path id="eddae07a-b52a-4907-b1af-f8339e15efc3" data-name="Path 2693" d="M966.7275,553.50049a9.377,9.377,0,0,1,2.7-14.122l-2.451-21.287,12.573-4.645,3.039,30.111a9.428,9.428,0,0,1-15.861,9.943Z" transform="translate(-160.43749 -135.46051)" fill="#ffb6b6"/><path id="b844d738-c40c-4960-8a6f-4ecc1c70a619" data-name="Path 2694" d="M956.8875,431.31149l7.421-10.373s5.079-1.127,11.079,5.873,9.5,94.5,9.5,94.5l-22,5-13-62Z" transform="translate(-160.43749 -135.46051)" fill="#3f3d56"/><g id="b77f951f-d39c-429f-8dc6-45f2ef5b0bed" data-name="Group 196"><path id="a805e9c5-1ea1-4013-9afd-650b519aebc9" data-name="Path 2663" d="M977.9905,613.35752l-80.422,16.461-1.833-.187-70.674-7.133v-89.559l86.516-14.627,62.759,7.319.023.4v.187Z" transform="translate(-160.43749 -135.46051)" fill="#e6e6e6"/><path id="a4955f90-f61a-4b35-93a6-ad4c70dc856f" data-name="Path 2664" d="M977.9905,613.35752l-80.422,16.461-1.833-.187v-91.816l78.624-11.791Z" transform="translate(-160.43749 -135.46051)" opacity="0.1" style="isolation:isolate"/><path id="f90c81dc-a964-4501-be16-290d035f1fc3" data-name="Path 2665" d="M974.35952,526.21149l-.023.023-78.6,11.581-70.674-4.88,86.516-14.627,62.759,7.319.023.4Z" transform="translate(-160.43749 -135.46051)" opacity="0.05" style="isolation:isolate"/><rect id="ea54bda8-24a1-49b1-94bc-6eb69a51e375" data-name="Rectangle 351" x="846.99466" y="552.7642" width="23.00263" height="49.00561" transform="translate(66.21612 1260.96933) rotate(-86.27357)" fill="#fff"/><rect id="fb58cd55-7a00-4962-8576-fd45e51c2f87" data-name="Rectangle 352" x="854.49301" y="564.26605" width="8.00092" height="26.00298" transform="translate(66.21325 1260.96733) rotate(-86.27357)" fill="#1ea2b8"/></g><path id="ae0644e4-ac26-46c5-a834-0b83a255246f" data-name="Path 2691" d="M861.10549,539.0535a9.377,9.377,0,0,0,3.673-13.9l11.422-18.13-9.324-9.628-15.771,25.829a9.428,9.428,0,0,0,10,15.83Z" transform="translate(-160.43749 -135.46051)" fill="#ffb6b6"/><path id="b91c484e-3e28-4196-97a0-298ec2a9fb78" data-name="Path 2692" d="M916.57052,425.20349l-8.183-5.392s-6.315,1.416-13.031,14.334-33.8,70.672-33.8,70.672l11.133,11.3,29.7-45.309Z" transform="translate(-160.43749 -135.46051)" fill="#3f3d56"/></svg>